<svg xmlns="http://www.w3.org/2000/svg" viewBox="-39 39 265.191 55">
  <defs>
    <style>
      .cls-1, .cls-3 {
        fill: #ffed00;
      }

      .cls-2, .cls-3 {
        fill-rule: evenodd;
      }
    </style>
  </defs>
  <g id="Logo" transform="translate(-39.025 39)">
    <g id="Group_105" data-name="Group 105" transform="translate(0.025)">
      <rect id="Rectangle_108" data-name="Rectangle 108" class="cls-1" width="1.631" height="20.659" transform="translate(23.421 2.25) rotate(-45)"/>
      <rect id="Rectangle_109" data-name="Rectangle 109" class="cls-1" width="1.631" height="20.659" transform="translate(21.17 4.52) rotate(-45)"/>
      <rect id="Rectangle_110" data-name="Rectangle 110" class="cls-1" width="1.631" height="20.659" transform="translate(18.919 6.792) rotate(-45)"/>
      <rect id="Rectangle_111" data-name="Rectangle 111" class="cls-1" width="1.631" height="20.659" transform="translate(16.731 8.998) rotate(-45)"/>
      <rect id="Rectangle_112" data-name="Rectangle 112" class="cls-1" width="1.631" height="20.659" transform="translate(14.48 11.269) rotate(-45)"/>
      <path id="Path_1" data-name="Path 1" class="cls-2" d="M46.765,18.6l1.178,1.178L44.591,23.04l-.091.091V20.865l.091-.091Z" transform="translate(-4.201 -1.747)"/>
      <path id="Path_2" data-name="Path 2" class="cls-3" d="M47.943,19.9l1.087,1.087-4.44,4.44-.091.091V23.253l.091-.091Z" transform="translate(-4.201 -1.869)"/>
      <path id="Path_3" data-name="Path 3" class="cls-2" d="M49.03,21.1l1.087,1.178-5.527,5.527L44.5,27.9V25.63l.091-.091Z" transform="translate(-4.201 -1.981)"/>
      <path id="Path_4" data-name="Path 4" class="cls-3" d="M50.118,22.4,51.3,23.487l-6.705,6.705-.091.091V28.018l.091-.091Z" transform="translate(-4.201 -2.103)"/>
      <path id="Path_5" data-name="Path 5" class="cls-2" d="M51.3,23.6l1.087,1.087L44.591,32.57H44.5V30.4l.091-.091Z" transform="translate(-4.201 -2.216)"/>
      <path id="Path_6" data-name="Path 6" class="cls-3" d="M52.383,24.8l1.178,1.178-8.97,8.97H44.5V32.683h.091Z" transform="translate(-4.201 -2.329)"/>
      <path id="Path_7" data-name="Path 7" class="cls-2" d="M20.787,7.5,35.466,22.088V51.355l-1.178,1.087V23.175L19.7,8.587Z" transform="translate(-1.873 -0.704)"/>
      <path id="Path_8" data-name="Path 8" class="cls-2" d="M18.287,9.9,32.966,24.579V53.846l-.272.272a7.923,7.923,0,0,1-.906.725V25.666L17.2,11.078Z" transform="translate(-1.638 -0.93)"/>
      <path id="Path_9" data-name="Path 9" class="cls-2" d="M15.878,12.4,30.557,27.079V55.711c-.362.181-.725.272-1.087.453v-28L14.7,13.578Z" transform="translate(-1.403 -1.164)"/>
      <path id="Path_10" data-name="Path 10" class="cls-3" d="M46.765,18.487,45.678,17.4,44.5,18.487v2.265Z" transform="translate(-4.201 -1.634)"/>
      <path id="Path_11" data-name="Path 11" class="cls-2" d="M28.278,0,44.044,15.766l-1.178,1.087v27l-1.087,1.178V15.766L27.1,1.087Z" transform="translate(-2.567)"/>
      <path id="Path_12" data-name="Path 12" class="cls-2" d="M25.787,2.5,40.375,17.088V46.355l-1.087,1.178V18.266L24.7,3.587Z" transform="translate(-2.342 -0.235)"/>
      <path id="Path_13" data-name="Path 13" class="cls-2" d="M23.287,5,37.966,19.588V48.855l-1.178,1.178V20.766L22.2,6.087Z" transform="translate(-2.107 -0.47)"/>
      <path id="Path_14" data-name="Path 14" class="cls-2" d="M53.561,26.1l.272.272a4.023,4.023,0,0,1,.725,1l-9.967,9.967-.091.091V35.07l.091-.091Z" transform="translate(-4.201 -2.451)"/>
      <path id="Path_15" data-name="Path 15" class="cls-3" d="M55.283,28.94,44.591,39.632l-.091.091V37.458l.091-.091L54.558,27.4a11.8,11.8,0,0,1,.725,1.54" transform="translate(-4.201 -2.573)"/>
      <path id="Path_16" data-name="Path 16" class="cls-2" d="M55.836,30.9,44.6,42.048h0V39.873l.091-.091L55.473,29c.091.634.272,1.269.362,1.9" transform="translate(-4.211 -2.723)"/>
      <path id="Path_17" data-name="Path 17" class="cls-3" d="M55.836,33.275,44.6,44.51h0V42.245h0L55.836,31.1a8.733,8.733,0,0,1,0,2.175" transform="translate(-4.211 -2.92)"/>
      <path id="Path_18" data-name="Path 18" class="cls-2" d="M53.752,37.759,44.6,47h0V44.826h0L55.836,33.5a7.881,7.881,0,0,1-2.084,4.259" transform="translate(-4.211 -3.146)"/>
      <path id="Path_19" data-name="Path 19" class="cls-3" d="M2.8,37.767l1.178,1.087,8.155-8.7V27.8Z" transform="translate(-0.286 -2.611)"/>
      <path id="Path_20" data-name="Path 20" class="cls-2" d="M4.1,39.1l1.087,1.178,7.068-7.521V30.4Z" transform="translate(-0.408 -2.855)"/>
      <path id="Path_21" data-name="Path 21" class="cls-3" d="M5.3,40.521l1.178,1.087,5.89-6.343V33Z" transform="translate(-0.52 -3.099)"/>
      <path id="Path_22" data-name="Path 22" class="cls-2" d="M6.6,41.843,7.778,42.93l4.712-5.074V35.5Z" transform="translate(-0.642 -3.334)"/>
      <path id="Path_23" data-name="Path 23" class="cls-3" d="M7.9,43.174l1.178,1.087,3.534-3.806V38.1Z" transform="translate(-0.764 -3.578)"/>
      <path id="Path_24" data-name="Path 24" class="cls-2" d="M9.2,44.506l1.178,1.087,2.356-2.628V40.7Z" transform="translate(-0.887 -3.822)"/>
      <path id="Path_25" data-name="Path 25" class="cls-3" d="M10.5,45.828l1.087,1.087,1.269-1.359V43.2Z" transform="translate(-1.009 -4.057)"/>
      <path id="Path_26" data-name="Path 26" class="cls-2" d="M11.7,47.159l1.178,1.087.091-.091V45.8Z" transform="translate(-1.121 -4.301)"/>
      <path id="Path_27" data-name="Path 27" class="cls-2" d="M.1,29.951,11.97,17.356V15L2,25.6A7,7,0,0,0,.1,29.951" transform="translate(-0.032 -1.409)"/>
      <path id="Path_28" data-name="Path 28" class="cls-3" d="M.093,32.46l11.779-12.5V17.6L.093,30.195a9.464,9.464,0,0,0,0,2.265" transform="translate(-0.025 -1.653)"/>
      <path id="Path_29" data-name="Path 29" class="cls-2" d="M.644,34.416l11.236-11.96V20.1L.1,32.695a6.316,6.316,0,0,0,.544,1.722" transform="translate(-0.032 -1.887)"/>
      <path id="Path_30" data-name="Path 30" class="cls-3" d="M1.515,36.1l10.42-11.145V22.6L.7,34.651a7.5,7.5,0,0,0,.815,1.45" transform="translate(-0.088 -2.122)"/>
      <path id="Path_31" data-name="Path 31" class="cls-2" d="M2.415,37.351l.272.272,9.333-9.967V25.3L1.6,36.354c.272.362.544.634.815,1" transform="translate(-0.173 -2.376)"/>
    </g>
    <path id="Path_32" data-name="Path 32" d="M68.3,40.046V18.3h5.527V40.046ZM87.328,23.193V40.046H81.8V23.193H76.636V18.3H92.493v4.893Zm20.478,16.853-1-3.171H99.288l-1.178,3.171H92.13l8.7-21.746h4.349l8.608,21.746ZM103,25.1l-2.265,7.43h4.53Zm13.229,14.951V18.3h5.527V35.153H129.1v4.893H116.232Zm29.811-8.7c-2.356,2.175-5.8,1.9-8.7,1.9v6.8H132V18.3h7.068c2.265,0,4.893.091,6.705,1.631a7.371,7.371,0,0,1,2.537,5.8A8.192,8.192,0,0,1,146.043,31.348Zm-6.705-8.155h-1.993v5.074h2.265c1.812,0,3.443-.453,3.443-2.537C142.962,23.555,141.15,23.193,139.338,23.193ZM151.48,40.046V18.3h5.527V35.153h7.339v4.893H151.48Zm30.264,0-1-3.171h-7.611l-1.178,3.171h-5.98l8.7-21.746h4.349l8.608,21.746Zm-4.8-14.951-2.265,7.43h4.53ZM203.58,40.046l-8.427-13.138.272,13.138h-5.346V18.3h4.712l8.427,13.682L202.946,18.3h5.346V40.046H203.58Zm18.3-16.853V40.046h-5.527V23.193h-5.165V18.3h15.947v4.893Z" transform="translate(-6.411 -1.718)"/>
    <g id="Group_106" data-name="Group 106" transform="translate(231.057 25.189)">
      <path id="Path_33" data-name="Path 33" d="M259.621,41.029c-2.537,0-4.621-1.269-4.621-3.987v-.453h3.262c0,.815.362,1.722,1.359,1.722a1.221,1.221,0,0,0,1.269-1.178c0-.725-.725-1.087-1.359-1.359a13.371,13.371,0,0,1-2.99-1.54,3.349,3.349,0,0,1-1.269-2.628c0-2.356,2.265-3.806,4.44-3.806a4.456,4.456,0,0,1,3.443,1.45,3.206,3.206,0,0,1,.815,2.537h-3.262c-.091-.725-.362-1.178-1.178-1.178a1.025,1.025,0,0,0-1.087,1c0,.634.544,1,1.087,1.269,2.084,1,4.53,1.631,4.53,4.349C264.061,39.851,262.158,41.029,259.621,41.029Z" transform="translate(-255 -27.8)"/>
      <path id="Path_34" data-name="Path 34" d="M266.7,41.9V39h2.99v2.9Z" transform="translate(-256.099 -28.852)"/>
      <path id="Path_35" data-name="Path 35" d="M275.009,35.821v5.255H272.2V31.562h2.718v1a2.385,2.385,0,0,1,2.356-1.359v2.9C276.006,34.1,275.009,34.371,275.009,35.821Z" transform="translate(-256.615 -28.119)"/>
      <path id="Path_36" data-name="Path 36" d="M278.6,41.9V39h2.99v2.9Z" transform="translate(-257.216 -28.852)"/>
      <path id="Path_37" data-name="Path 37" d="M284,40.876V28.1h2.9V40.876Z" transform="translate(-257.723 -27.828)"/>
      <path id="Path_38" data-name="Path 38" d="M289.4,41.9V39h2.99v2.9Z" transform="translate(-258.23 -28.852)"/>
    </g>
  </g>
</svg>
