<svg xmlns="http://www.w3.org/2000/svg" xmlns:xlink="http://www.w3.org/1999/xlink" width="409.128" height="113.868" viewBox="0 0 409.128 113.868">
  <defs>
    <filter id="Type" x="86.966" y="24.135" width="322.161" height="66.732" filterUnits="userSpaceOnUse">
      <feOffset dy="6" input="SourceAlpha"/>
      <feGaussianBlur stdDeviation="6" result="blur"/>
      <feFlood flood-color="#398898"/>
      <feComposite operator="in" in2="blur"/>
      <feComposite in="SourceGraphic"/>
    </filter>
    <filter id="symbol-shadow" x="0" y="0" width="109.187" height="113.868" filterUnits="userSpaceOnUse">
      <feOffset dy="6" input="SourceAlpha"/>
      <feGaussianBlur stdDeviation="6" result="blur-2"/>
      <feFlood flood-color="#398898"/>
      <feComposite operator="in" in2="blur-2"/>
      <feComposite in="SourceGraphic"/>
    </filter>
  </defs>
  <g id="logo-white-shadow" transform="translate(18 12.001)">
    <g transform="matrix(1, 0, 0, 1, -18, -12)" filter="url(#Type)">
      <path id="Type-2" data-name="Type" d="M325.055,48.459v-.638h4.591c0,1.147.51,2.423,1.912,2.423a1.718,1.718,0,0,0,1.786-1.658c0-1.02-1.021-1.53-1.913-1.913a18.816,18.816,0,0,1-4.208-2.168,4.714,4.714,0,0,1-1.786-3.7c0-3.316,3.188-5.356,6.249-5.356a6.269,6.269,0,0,1,4.846,2.04,4.51,4.51,0,0,1,1.147,3.57h-4.59c-.128-1.02-.51-1.658-1.658-1.658a1.443,1.443,0,0,0-1.531,1.4c0,.893.765,1.4,1.531,1.786,2.932,1.4,6.376,2.295,6.376,6.121,0,3.7-2.678,5.356-6.249,5.356S325.055,52.284,325.055,48.459Zm-29.714,5.484V30.223h-7.268V23.337h22.444v6.886h-7.4v23.72Zm-17.98,0L265.5,35.451l.383,18.491H258.36V23.337h6.631l11.859,19.256-.383-19.256h7.524V53.942Zm-30.733,0-1.4-4.464H234.513l-1.658,4.464h-8.416l12.242-30.605H242.8l12.115,30.605Zm-9.947-10.585h6.376L239.869,32.9ZM204.035,53.942V23.337h7.779V47.056h10.329v6.887Zm-27.418,0V23.337h9.947c3.189,0,6.887.127,9.436,2.3a10.371,10.371,0,0,1,3.571,8.161,11.527,11.527,0,0,1-3.188,7.906c-3.316,3.061-8.162,2.678-12.243,2.678v9.564Zm7.524-16.578h3.188c2.551,0,4.846-.638,4.846-3.571-.128-3.06-2.678-3.57-5.229-3.57h-2.805ZM154.429,53.942V23.337h7.779V47.056h10.329v6.887Zm-11.859,0-1.4-4.464H130.582l-1.658,4.464h-8.416L132.75,23.337h6.121l12.115,30.605Zm-9.947-10.585H139L135.811,32.9ZM105.971,53.942V30.223H98.7V23.337h22.316v6.886h-7.269v23.72Zm-19,0V23.337h7.779V53.942Zm281.953-.128V49.733h4.208v4.082Zm-6.886,0V35.833h4.081V53.815Zm-6.887,0V49.733h4.208v4.082Zm-15.175,0V49.733h4.208v4.082Zm7.014-.128V40.3h3.826v1.4a3.355,3.355,0,0,1,3.316-1.912v4.081c-1.786,0-3.189.382-3.189,2.423v7.4Z" transform="translate(18 12.8)" fill="#fff"/>
    </g>
    <g transform="matrix(1, 0, 0, 1, -18, -12)" filter="url(#symbol-shadow)">
      <path id="symbol-shadow-2" data-name="symbol-shadow" d="M-573.263-227.774l-20.911-20.65,1.668-1.668.027.027,1.54-1.539-.028-.028,1.539-1.668,20.783,20.782v41.436l-.385.385a11.247,11.247,0,0,1-1.283,1.026v-41.194l-1.483,1.482.073.073v40.537c-.513.257-1.027.385-1.539.641Zm6.156-6.327-1.524,1.523-20.682-20.682,1.566-1.565-.014-.014,1.539-1.539,1.876,1.865-1.869-1.869,1.633-1.634,9.561,9.561-9.532-9.592,1.539-1.539-.014-.014,1.634-1.633L-570.159-250l-11.187-11.257,1.532-1.531-.027-.027,1.611-1.611-.037-.037L-576.6-266l22.322,22.322-1.668,1.539v0l1.668-1.539,1.539,1.539h0l1.668,1.668-4.746,4.618-.129.129.128-.128,4.747-4.618,1.539,1.539,1.539,1.668-7.826,7.826-.127.134v3.207l.005-.005v-3.206l.13-.129,7.819-7.826,1.673,1.539h0l1.539,1.539,0,0,1.665,1.665h0l.384.385a5.679,5.679,0,0,1,.981,1.329l.045-.045a16.676,16.676,0,0,1,1.027,2.181l-15.138,15.137-.129.13v-9.622h.129l1.818-1.84-1.818,1.839h-.129v19.111l-1.539,1.668v-41.432l-.064-.064-1.606,1.606V-200.7l-1.539,1.669v-41.436l-.049-.05-1.539,1.539.05.049V-197.5l-1.668,1.669v-41.436l-.035-.035-1.54,1.54.035.035v41.436l-1.668,1.539Zm-30.916,28.778,1.8-1.924v3.335l-.13.129Zm42.2-1.668,15.684-15.809-15.683,15.683v-3.207L-539.91-226.1a12.322,12.322,0,0,1,0,3.079h0A11.163,11.163,0,0,1-542.861-217l-12.957,13.083Zm-43.745.13,3.335-3.721v3.335l-1.8,1.924Zm-1.668-1.54h0l-1.667-1.539,6.671-7.183v3.334l0,0v3.206l-3.335,3.721Zm-3.335-3.079h0l-1.668-1.539,10.007-10.648v6.542l-6.672,7.184Zm48.747-1.924.129-.129,15.266-15.265c.129.9.384,1.8.512,2.689h0l-15.908,15.783Zm-51.954-1.282L-596.228-227v3.337l-10.007,10.648Zm-1.6-1.482-.065.069-.384-.385v0c-.384-.518-.769-.9-1.154-1.415h0a10.582,10.582,0,0,1-1.154-2.053l.117-.125-.117.125h0a8.957,8.957,0,0,1-.77-2.438l.113-.121-.113.12a13.369,13.369,0,0,1,0-3.207,9.906,9.906,0,0,1,2.69-6.16l14.115-15.008v3.336l-.129.137v3.073l0,0v3.335l0,0v3.2l-14.541,15.553,14.541-15.425v3.209h0V-227l-11.546,12.317Z" transform="translate(631 278)" fill="#fff"/>
    </g>
    <path id="Symbol-white" d="M-573.359-227.774l-20.911-20.65,1.668-1.668,20.783,20.782v40.537c-.513.257-1.027.385-1.539.641Zm2.948-3.206-20.653-20.653,1.539-1.668,20.783,20.782v41.436l-.385.385a11.247,11.247,0,0,1-1.283,1.026Zm3.208-3.207-20.654-20.653,1.539-1.539,20.783,20.653v41.436l-1.668,1.539Zm3.208-3.079-20.653-20.782,1.539-1.539,20.782,20.653V-197.5L-564-195.829Zm3.207-3.207-20.653-20.783,1.539-1.538,20.653,20.653V-200.7l-1.539,1.669Zm3.208-3.207-20.783-20.783L-576.7-266l22.322,22.322-1.668,1.539v3.207l.129-.129,3.078-3.078,1.668,1.668-4.746,4.618-.129.129v3.207l.129-.129,6.285-6.285,1.539,1.668-7.826,7.826-.127.134v3.207l.129-.129,9.5-9.5,1.539,1.539-11.038,11.161h-.129v19.111l-1.539,1.668Zm-40.539,38.356,1.8-1.924v3.335l-.13.129Zm42.2-1.668,15.908-16.035a11.162,11.162,0,0,1-2.951,6.03l-12.957,13.083Zm-45.412-1.41,5-5.388v3.207l-3.335,3.721Zm-3.335-3.079,8.339-8.981v3.336l-6.672,7.184Zm48.747-1.924.129-.129L-540.52-228.8c.129.9.384,1.8.512,2.689h0l-15.908,15.783Zm-51.954-1.282L-596.324-227v3.337l-10.007,10.648Zm-2.053-1.8v0c-.384-.518-.769-.9-1.155-1.416l14.753-15.65v3.335L-609.538-216.1Zm53.88-3.335.129-.129,12.7-12.571.384.385a5.68,5.68,0,0,1,1.027,1.416l-14.111,14.111-.129.13ZM-613-222.383l16.678-17.832v3.335l-15.908,16.934h0A8.957,8.957,0,0,1-613-222.383Zm2.69-9.368,14.115-15.008v3.336L-613-225.59A9.906,9.906,0,0,1-610.31-231.751Z" transform="translate(613.097 266)"/>
    <path id="Symbol-yellow" d="M-599.563-208.414l3.335-3.721v3.335l-1.8,1.924Zm43.745-3.463,15.907-15.779a12.322,12.322,0,0,1,0,3.079l-15.907,15.907Zm-47.079.383,6.671-7.183v3.334l-5,5.388Zm-3.336-3.078,10.007-10.648v3.207l-8.339,8.98Zm50.287-3.591.129-.13,14.111-14.111a16.676,16.676,0,0,1,1.027,2.181l-15.138,15.137-.129.13Zm-53.5.383,13.214-14.111v3.333l-11.546,12.317Zm-2.693-3.72,15.906-17.061v3.335l-14.752,15.779h0A10.582,10.582,0,0,1-612.133-221.5Zm56.188.128v-3.207h.129l11.032-11.161,1.668,1.668-12.7,12.7Zm-56.958-5.773,16.676-17.832v3.342l-16.676,17.7A13.369,13.369,0,0,1-612.9-227.144Zm56.964-3.719.13-.129,7.819-7.826,1.673,1.539-9.492,9.493-.13.129ZM-592.5-251.6l1.633-1.633,20.682,20.682-1.633,1.633Zm36.553,14.321.129-.129,4.747-4.618,1.539,1.539-6.286,6.286-.129.129Zm-33.367-17.536,1.633-1.633L-567-235.764l-1.633,1.633Zm3.1-3.123,1.633-1.634,20.682,20.682-1.633,1.633Zm3.187-3.217,1.634-1.633,20.682,20.682-1.634,1.633Zm27.083,17.461,1.668-1.539,1.539,1.539-3.207,3.207Zm-23.9-20.675,1.633-1.633,20.682,20.682-1.634,1.633Z" transform="translate(613 267.553)" fill="#ffed00"/>
  </g>
</svg>
